<?xml version="1.0" standalone="no"?>
<!DOCTYPE svg PUBLIC "-//W3C//DTD SVG 20010904//EN"
 "http://www.w3.org/TR/2001/REC-SVG-20010904/DTD/svg10.dtd">
<svg version="1.0" xmlns="http://www.w3.org/2000/svg"
 width="236.000000pt" height="236.000000pt" viewBox="0 0 236.000000 236.000000"
 preserveAspectRatio="xMidYMid meet">

<g transform="translate(0.000000,236.000000) scale(0.100000,-0.100000)"
fill="#000000" stroke="none">
<path d="M0 2300 l0 -60 38 0 37 0 -3 -61 c-3 -45 -7 -58 -15 -50 -18 18 -27
13 -27 -14 0 -15 6 -25 14 -25 8 0 16 -12 18 -27 2 -22 12 -29 53 -44 28 -10
61 -18 74 -18 l24 -1 -7 95 c-8 113 -9 118 -44 132 -19 8 282 11 1086 12
l1112 1 0 60 0 60 -1180 0 -1180 0 0 -60z"/>
<path d="M1482 2075 c-8 -16 -23 -26 -47 -31 -19 -3 -35 -12 -35 -19 0 -8 -19
-14 -53 -17 -67 -5 -140 -54 -210 -139 -86 -104 -139 -243 -122 -320 7 -29
-11 -70 -41 -94 -6 -5 -14 -35 -17 -65 -3 -30 -13 -89 -22 -130 -18 -80 -15
-187 7 -235 10 -22 8 -28 -9 -45 -17 -16 -20 -27 -16 -62 3 -24 9 -52 14 -63
7 -19 8 -19 8 2 1 32 12 54 23 46 7 -4 9 3 6 19 -5 29 7 49 39 66 34 18 41 15
45 -20 3 -32 5 -33 53 -36 64 -5 193 15 222 34 15 9 21 22 20 40 -2 24 1 25
57 29 32 2 66 -1 76 -7 16 -10 16 -16 4 -60 -11 -45 -11 -51 7 -69 10 -10 19
-20 18 -21 0 -2 3 -16 6 -31 10 -40 -5 -51 -44 -31 -41 20 -139 34 -168 23
-13 -5 -29 -6 -38 -3 -12 5 -11 12 7 47 l20 41 -23 -16 c-13 -8 -26 -24 -28
-34 -2 -11 -9 -22 -16 -27 -8 -4 -19 -22 -25 -41 -8 -27 -15 -33 -30 -29 -11
3 -20 0 -20 -6 0 -6 -4 -11 -10 -11 -5 0 -9 5 -7 12 1 6 -6 14 -15 16 -15 3
-18 -4 -18 -37 0 -35 -3 -41 -21 -41 -14 0 -19 -5 -16 -14 3 -8 1 -16 -4 -18
-13 -4 -19 -108 -7 -108 5 0 6 -9 3 -20 -4 -12 1 -43 11 -69 20 -56 14 -81
-19 -81 -13 0 -27 -4 -32 -9 -6 -5 -33 -12 -61 -16 -42 -5 -52 -4 -57 9 -9 23
-23 20 -50 -10 -24 -26 -25 -26 -52 -8 -22 14 -31 15 -46 6 -10 -7 -46 -12
-79 -12 -33 0 -60 -4 -60 -9 0 -16 -53 -20 -67 -5 -16 16 -61 18 -83 4 -10 -6
-3 -8 22 -3 42 6 68 -8 68 -38 0 -12 -7 -19 -20 -19 -11 0 -20 7 -20 15 0 8
-4 15 -10 15 -14 0 -13 -107 1 -116 9 -5 10 3 5 30 -6 34 -5 36 19 36 23 0 25
-3 25 -45 l0 -45 -45 0 c-40 0 -47 3 -56 28 -6 15 -9 48 -6 74 2 26 0 45 -5
42 -4 -3 -8 4 -8 15 0 24 -34 29 -55 8 -10 -11 -10 -18 1 -38 l13 -24 1 33 c0
22 5 32 15 32 12 0 15 -16 15 -86 0 -81 -1 -86 -19 -81 -16 4 -21 -2 -26 -24
l-7 -29 -184 0 -184 0 0 -65 0 -65 1180 0 1180 0 0 105 c0 98 -1 105 -20 105
-11 0 -20 -4 -20 -9 0 -16 -70 -34 -108 -27 -50 8 -124 80 -112 110 9 25 10
30 10 57 0 30 67 89 104 91 59 3 78 -1 112 -27 l34 -26 0 344 0 345 -30 6
c-24 4 -30 11 -30 30 0 14 -4 28 -10 31 -5 3 -10 16 -10 27 0 12 -9 31 -19 42
-11 12 -45 70 -76 131 -31 60 -62 116 -70 125 -8 9 -26 38 -41 65 -14 27 -37
59 -50 72 -13 12 -24 30 -24 41 0 19 -13 34 -67 78 -18 14 -33 31 -33 37 0 7
-23 34 -50 62 -28 27 -50 55 -50 61 0 5 -20 37 -45 71 -46 61 -134 126 -188
137 -15 3 -38 8 -50 11 -18 3 -27 -1 -35 -20z m-149 -122 c-7 -2 -13 -11 -13
-19 0 -16 -58 -70 -71 -66 -5 1 -9 -3 -9 -8 0 -15 -48 -65 -55 -58 -4 4 3 16
14 27 12 12 21 26 21 32 0 17 89 99 108 98 10 0 12 -3 5 -6z m95 -392 c12 -6
37 -11 57 -11 20 0 60 -7 88 -15 29 -8 70 -16 92 -18 53 -5 109 -32 123 -60
59 -116 61 -130 61 -305 0 -92 -5 -176 -10 -187 -7 -14 -8 -5 -4 30 8 76 -10
95 -88 96 -34 1 -75 5 -92 10 -19 5 1 6 53 2 45 -3 82 -2 82 2 0 18 -67 69
-133 101 -82 39 -126 43 -166 13 -22 -16 -38 -19 -81 -16 -45 4 -54 8 -64 30
-17 39 -57 65 -113 73 -43 5 -60 2 -108 -20 -69 -31 -94 -60 -94 -106 0 -19 3
-29 6 -22 2 6 9 12 15 12 6 0 3 -12 -7 -26 -11 -17 -15 -37 -11 -55 4 -21 0
-34 -16 -49 -12 -11 -25 -20 -30 -20 -16 0 -12 104 8 181 8 31 14 76 14 100 1
53 15 118 29 132 13 13 40 -18 41 -46 0 -10 6 -25 14 -33 18 -17 105 -18 127
-1 17 13 24 83 9 92 -6 3 -10 28 -10 55 0 43 3 51 28 63 31 17 148 15 180 -2z
m-328 -81 c0 -5 -2 -10 -4 -10 -3 0 -8 5 -11 10 -3 6 -1 10 4 10 6 0 11 -4 11
-10z m945 -190 c56 -94 86 -158 109 -232 18 -57 44 -132 58 -168 32 -80 45
-150 28 -150 -7 0 -25 -9 -40 -20 -16 -11 -55 -25 -87 -31 -66 -12 -86 -21
-129 -59 -21 -18 -48 -29 -82 -34 -27 -3 -52 -12 -55 -19 -3 -7 -30 -21 -61
-31 -32 -9 -60 -24 -63 -32 -3 -8 -11 -14 -18 -14 -9 0 -7 17 8 63 11 34 24
65 29 68 6 4 11 31 13 60 3 52 3 53 -9 21 -6 -18 -14 -30 -18 -27 -4 4 -4 -2
-1 -14 3 -12 1 -21 -6 -21 -6 0 -11 7 -11 16 0 9 -5 12 -12 8 -9 -6 -9 -3 0 9
8 9 11 21 7 27 -10 16 -35 12 -36 -7 0 -13 -2 -14 -6 -4 -7 17 -40 51 -51 51
-4 0 -13 12 -19 28 -15 32 -32 59 -55 84 -33 33 -19 35 75 12 123 -32 155 -31
185 4 l23 27 -5 -40 c-3 -22 -14 -67 -25 -100 -11 -33 -18 -62 -15 -64 7 -7
55 42 71 74 10 19 15 53 15 94 -1 42 4 71 12 81 26 29 56 130 56 186 0 58 17
142 31 159 12 12 11 48 0 61 -16 16 -18 79 -2 70 5 -3 43 -64 86 -136z m-85
31 c0 -6 -4 -13 -10 -16 -5 -3 -10 1 -10 9 0 9 5 16 10 16 6 0 10 -4 10 -9z
m-785 -171 c-3 -5 -32 -9 -63 -9 -55 2 -56 2 -17 9 62 11 87 11 80 0z m47 -98
c-16 -5 -15 -22 1 -22 6 0 23 6 37 13 33 18 50 11 50 -19 0 -25 -4 -28 -55
-38 -27 -6 -28 -5 -12 7 26 21 21 28 -18 23 -19 -3 -35 -3 -35 -1 0 2 4 16 10
30 6 17 14 23 22 19 9 -6 9 -9 0 -12z m540 -7 c31 -5 36 -9 34 -28 -5 -44 -16
-49 -43 -17 -14 17 -40 37 -57 45 l-31 14 30 -4 c17 -2 47 -7 67 -10z m-642
-61 c0 -2 -7 -4 -15 -4 -8 0 -15 4 -15 10 0 5 7 7 15 4 8 -4 15 -8 15 -10z
m445 6 c3 -6 -1 -7 -9 -4 -18 7 -21 14 -7 14 6 0 13 -4 16 -10z m-21 -58 c-21
-5 -28 4 -20 24 6 16 8 15 21 -2 12 -16 12 -19 -1 -22z m219 4 c19 -9 19 -9
11 -30 -4 -10 -18 -16 -41 -16 -19 0 -32 4 -28 9 3 6 -15 19 -40 30 -25 11
-45 21 -45 23 0 6 124 -8 143 -16z m-503 -151 c8 -8 38 -16 65 -19 28 -3 65
-10 83 -17 20 -6 55 -9 83 -6 54 7 66 -2 47 -35 -7 -13 -11 -26 -10 -30 2 -10
-47 -22 -55 -15 -3 4 -14 2 -24 -4 -11 -5 -19 -6 -19 -2 0 4 -45 9 -100 9 -92
1 -134 10 -102 21 18 7 15 34 -4 31 -26 -5 -40 26 -26 56 13 29 37 33 62 11z
m567 -7 c-3 -8 -6 -5 -6 6 -1 11 2 17 5 13 3 -3 4 -12 1 -19z m-461 -165 c13
-17 13 -17 14 0 0 16 5 17 33 12 46 -10 47 -12 47 -55 0 -33 -4 -39 -27 -45
-20 -5 -31 -2 -41 12 -12 17 -14 17 -23 1 -14 -25 -65 -24 -79 1 -14 27 -13
78 3 84 26 11 60 6 73 -10z m220 -19 c-4 -15 -14 -33 -21 -41 -8 -8 -15 -18
-15 -23 0 -4 -9 -6 -20 -3 -11 3 -17 10 -13 17 3 6 -2 3 -13 -6 -19 -16 -19
-16 -16 23 3 32 8 39 26 39 11 0 28 5 36 10 28 18 43 12 36 -16z m-876 -259
c0 -8 -4 -15 -10 -15 -6 0 -10 -30 -10 -70 0 -69 -1 -70 -26 -70 -25 0 -25 1
-23 67 2 44 -2 68 -9 71 -7 2 -12 10 -12 18 0 10 13 14 45 14 33 0 45 -4 45
-15z m94 -7 c31 -146 31 -148 6 -148 -11 0 -20 7 -20 15 0 8 -5 15 -10 15 -6
0 -13 -7 -16 -15 -5 -12 -44 -23 -44 -12 0 1 7 37 15 80 8 43 15 81 15 83 0 2
11 4 25 4 17 0 26 -6 29 -22z m78 -10 l1 -33 4 33 c3 24 9 32 24 32 14 0 19
-8 21 -32 l1 -33 4 33 c3 24 9 32 24 32 19 0 20 -4 14 -57 -11 -100 -15 -113
-36 -113 -14 0 -19 7 -19 30 0 17 -4 30 -10 30 -5 0 -10 -13 -10 -30 0 -23 -5
-30 -19 -30 -15 0 -20 10 -25 48 -4 26 -9 64 -12 85 -5 33 -3 37 15 37 17 0
21 -7 23 -32z m158 -38 c0 -40 4 -70 10 -70 6 0 10 30 10 70 0 63 2 70 20 70
18 0 20 -7 20 -69 0 -93 -4 -101 -50 -101 -22 0 -42 5 -45 10 -4 6 -9 44 -12
85 l-6 75 27 0 c26 0 26 -1 26 -70z m230 55 c0 -8 -7 -15 -15 -15 -12 0 -15
-14 -15 -70 0 -63 -2 -70 -20 -70 -18 0 -20 7 -20 70 0 56 -3 70 -15 70 -8 0
-15 7 -15 15 0 11 12 15 50 15 38 0 50 -4 50 -15z m101 -70 c14 -79 14 -85 -2
-85 -9 0 -19 7 -23 15 -3 8 -10 15 -16 15 -5 0 -10 -7 -10 -15 0 -8 -9 -15
-20 -15 -23 0 -24 12 -9 96 13 72 15 74 42 74 20 0 24 -9 38 -85z m59 61 c0
-14 5 -28 10 -31 6 -4 10 7 10 24 0 21 5 31 15 31 9 0 15 -10 15 -26 0 -14 4
-23 10 -19 6 3 10 15 10 26 0 11 7 19 16 19 15 0 16 -9 10 -61 -3 -34 -6 -73
-6 -85 0 -19 -5 -24 -25 -24 -21 0 -25 5 -25 32 0 37 -9 33 -12 -5 -2 -20 -8
-27 -24 -27 -19 0 -22 7 -28 61 -9 92 -8 109 9 109 9 0 15 -9 15 -24z m160
-46 c0 -40 4 -70 10 -70 6 0 10 30 10 70 0 62 2 70 19 70 10 0 22 -7 25 -16 9
-24 7 -100 -4 -128 -8 -22 -16 -26 -49 -26 -47 0 -51 8 -51 101 0 62 2 69 20
69 18 0 20 -7 20 -70z m224 48 c31 -146 31 -148 6 -148 -11 0 -20 7 -20 15 0
8 -7 15 -15 15 -8 0 -15 -7 -15 -15 0 -9 -9 -15 -21 -15 -17 0 -20 5 -15 28
28 148 26 142 52 142 16 0 25 -7 28 -22z m96 -63 l0 -85 -30 0 c-29 0 -40 13
-20 25 6 3 10 37 10 76 0 62 2 69 20 69 18 0 20 -7 20 -85z m117 20 c18 -87
17 -105 -7 -105 -11 0 -20 7 -20 15 0 8 -5 15 -10 15 -6 0 -13 -7 -16 -15 -4
-8 -15 -15 -26 -15 -14 0 -18 5 -14 16 3 9 11 47 18 86 11 66 12 69 37 66 22
-3 27 -10 38 -63z"/>
<path d="M1700 775 c0 -8 5 -15 10 -15 6 0 10 7 10 15 0 8 -4 15 -10 15 -5 0
-10 -7 -10 -15z"/>
<path d="M1650 755 c0 -9 5 -15 11 -13 6 2 11 8 11 13 0 5 -5 11 -11 13 -6 2
-11 -4 -11 -13z"/>
<path d="M771 254 c0 -11 3 -14 6 -6 3 7 2 16 -1 19 -3 4 -6 -2 -5 -13z"/>
<path d="M1320 250 c0 -5 5 -10 10 -10 6 0 10 5 10 10 0 6 -4 10 -10 10 -5 0
-10 -4 -10 -10z"/>
<path d="M1781 254 c0 -11 3 -14 6 -6 3 7 2 16 -1 19 -3 4 -6 -2 -5 -13z"/>
<path d="M1980 255 c0 -8 4 -15 10 -15 5 0 7 7 4 15 -4 8 -8 15 -10 15 -2 0
-4 -7 -4 -15z"/>
<path d="M258 1303 c7 -3 16 -2 19 1 4 3 -2 6 -13 5 -11 0 -14 -3 -6 -6z"/>
<path d="M957 863 c-2 -5 -1 -19 4 -33 7 -23 7 -23 8 8 1 31 -3 40 -12 25z"/>
<path d="M1117 834 c-8 -8 1 -24 14 -24 5 0 9 7 9 15 0 15 -12 20 -23 9z"/>
<path d="M1060 795 c0 -9 6 -12 15 -9 8 4 12 10 9 15 -8 14 -24 10 -24 -6z"/>
<path d="M2144 365 c-25 -19 -14 -19 22 0 16 8 22 15 13 15 -8 0 -24 -7 -35
-15z"/>
<path d="M80 346 c0 -7 7 -29 16 -47 14 -31 13 -19 -2 31 -5 16 -2 20 15 20
12 0 21 -6 21 -15 0 -8 5 -15 10 -15 6 0 10 7 10 16 0 12 7 15 25 12 14 -3 25
-1 25 3 0 5 -27 9 -60 9 -44 0 -60 -4 -60 -14z"/>
<path d="M205 314 c-3 -25 -4 -48 -2 -51 3 -3 9 16 13 42 6 45 8 47 35 43 16
-3 29 -1 29 4 0 4 -15 8 -34 8 -32 0 -34 -2 -41 -46z"/>
<path d="M315 350 c-7 -12 2 -12 30 0 19 8 19 9 -2 9 -12 1 -25 -3 -28 -9z"/>
<path d="M2305 350 c3 -5 11 -10 16 -10 6 0 7 5 4 10 -3 6 -11 10 -16 10 -6 0
-7 -4 -4 -10z"/>
<path d="M2190 330 c0 -5 5 -10 11 -10 5 0 7 5 4 10 -3 6 -8 10 -11 10 -2 0
-4 -4 -4 -10z"/>
<path d="M172 291 c-7 -21 -12 -55 -12 -75 0 -29 -4 -36 -19 -36 -16 0 -21 8
-24 43 l-4 42 -1 -47 c-2 -47 -1 -48 28 -48 29 0 30 2 30 44 0 23 5 57 11 75
6 18 9 34 7 37 -3 2 -10 -13 -16 -35z"/>
<path d="M286 290 c3 -25 8 -59 11 -77 4 -27 2 -32 -19 -36 -12 -2 3 -5 34 -6
54 -1 58 1 64 25 4 14 2 30 -5 37 -8 8 -11 3 -11 -21 0 -24 -4 -32 -18 -32
-19 0 -27 18 -51 115 l-10 40 5 -45z"/>
<path d="M2311 261 c-1 -23 -3 -24 -66 -18 -36 4 -74 11 -86 17 -18 10 -19 10
-10 -8 5 -10 17 -25 26 -32 14 -12 18 -12 25 0 8 12 15 12 46 1 33 -12 38 -11
56 7 11 11 18 28 15 38 -4 15 -5 14 -6 -5z"/>
<path d="M240 250 c0 -5 5 -10 10 -10 6 0 10 5 10 10 0 6 -4 10 -10 10 -5 0
-10 -4 -10 -10z"/>
<path d="M190 228 c0 -7 -3 -23 -6 -35 -5 -20 -2 -23 21 -23 28 0 62 26 50 38
-3 4 -11 -1 -16 -11 -6 -9 -18 -17 -28 -17 -14 0 -17 6 -13 30 2 17 2 30 -2
30 -3 0 -6 -6 -6 -12z"/>
<path d="M2218 203 c7 -3 16 -2 19 1 4 3 -2 6 -13 5 -11 0 -14 -3 -6 -6z"/>
</g>
</svg>
